ply
format ascii 1.0
comment VCGLIB generated
element vertex 18
property float x
property float y
property float z
property float nx
property float ny
property float nz
element face 6
property list uchar int vertex_indices
end_header
-1 -1 0 0 0 -1
1 1 0 0 0 -1
1 -1 0 0 0 -1
1 1 0 0 0 -1
-1 -1 0 0 0 -1
-1 1 0 0 0 -1
-1 -1 0 0 -0.81649658 0.577350269
1 -1 0 0 -0.81649658 0.577350269
0 0 1.41421356 0 -0.81649658 0.577350269
1 -1 0 0.81649658 0 0.577350269
1 1 0 0.81649658 0 0.577350269
0 0 1.41421356 0.81649658 0 0.577350269
1 1 0 0 0.81649658 0.577350269
-1 1 0 0 0.81649658 0.577350269
0 0 1.41421356 0 0.81649658 0.577350269
-1 1 0 -0.81649658 0 0.577350269
-1 -1 0 -0.81649658 0 0.577350269
0 0 1.41421356 -0.81649658 0 0.577350269
3 0 1 2 
3 3 4 5 
3 6 7 8 
3 9 10 11 
3 12 13 14 
3 15 16 17
